/* XPM */
static char * close_active_xpm[] = {
"30 25 27 1",
"   c #282828",
".  c #808080",
"+  c #636363",
"@  c #5F5F5F",
"#  c #848484",
"$  c #818080",
"%  c #F7F7F7",
"&  c #B9B9BA",
"*  c #B2B3B2",
"=  c #8B8B8B",
"-  c #B9BAB9",
";  c #686868",
">  c #B3B2B3",
",  c #BEBEBF",
"'  c #C7C7C7",
")  c #BEBEBE",
"!  c #CACACA",
"~  c #717171",
"{  c #B2B3B3",
"]  c #BAB9B9",
"^  c #626262",
"/  c #B2B2B3",
"(  c #B9B9B9",
"_  c #919191",
":  c #8D8D8D",
"<  c #676767",
"[  c #929292",
"                              ",
"                              ",
"                              ",
"                              ",
"                              ",
"           .+   @#            ",
"          $%&+ @*%=           ",
"          +%%-;>%,;           ",
"           +%%'%);            ",
"            ;'%!~             ",
"           @{%!%]^            ",
"          @/%)~%%(^           ",
"          #%); +%%_           ",
"           :<   +[            ",
"                              ",
"                              ",
"                              ",
"                              ",
"                              ",
"                              ",
"                              ",
"                              ",
"                              ",
"                              ",
"                              "};
