/* XPM */
static char * close_inactive_xpm[] = {
"30 25 34 1",
"   c #282828",
".  c #272727",
"+  c #696969",
"@  c #515151",
"#  c #262626",
"$  c #4E4E4E",
"%  c #6C6C6C",
"&  c #262526",
"*  c #CBCBCB",
"=  c #989898",
"-  c #929292",
";  c #727272",
">  c #272828",
",  c #525151",
"'  c #555555",
")  c #939292",
"!  c #9C9C9C",
"~  c #282827",
"{  c #A3A3A3",
"]  c #252525",
"^  c #252626",
"/  c #A5A5A5",
"(  c #5D5C5C",
"_  c #272626",
":  c #929392",
"<  c #A5A6A6",
"[  c #525252",
"}  c #929293",
"|  c #5C5C5D",
"1  c #6F6F6F",
"2  c #777777",
"3  c #747473",
"4  c #565656",
"5  c #787778",
"                              ",
"                              ",
"                              ",
"                              ",
"           .                  ",
"          .+@# #$%&           ",
"          +*=@#$-*;>          ",
"          ,**=')*!'~          ",
"          .@**{*!']           ",
"           ^'{*/(_            ",
"          #$:*<*=[.           ",
"          $}*!|**=[           ",
"          1*!'#@**2           ",
"          .34. .@5.           ",
"                              ",
"                              ",
"                              ",
"                              ",
"                              ",
"                              ",
"                              ",
"                              ",
"                              ",
"                              ",
"                              "};
