/* XPM */
static char * close_pressed_xpm[] = {
"30 25 66 1",
"   c #1793D1",
".  c #1792D0",
"+  c #1A94D2",
"@  c #1892D0",
"#  c #1B94D1",
"$  c #1994D1",
"%  c #1C94D2",
"&  c #989898",
"*  c #828282",
"=  c #2597D3",
"-  c #1891CE",
";  c #1E95D2",
">  c #7E7E7E",
",  c #9D9D9D",
"'  c #2999D4",
")  c #1893D1",
"!  c #1F93D0",
"~  c #9B9A99",
"{  c #F9F9F9",
"]  c #C7C7C8",
"^  c #2A9AD4",
"/  c #7F7F7F",
"(  c #C2C2C2",
"_  c #A2A2A2",
":  c #2397D3",
"<  c #1893D2",
"[  c #828283",
"}  c #C7C8C7",
"|  c #868686",
"1  c #CBCBCC",
"2  c #2598D3",
"3  c #2C9AD4",
"4  c #828383",
"5  c #D2D3D2",
"6  c #CBCBCB",
"7  c #858685",
"8  c #1F96D2",
"9  c #1892CF",
"0  c #1992CF",
"a  c #2497D3",
"b  c #D5D5D5",
"c  c #8E8E8E",
"d  c #2798D3",
"e  c #C8C7C7",
"f  c #818386",
"g  c #1994D2",
"h  c #7F8080",
"i  c #8E8D8D",
"j  c #C7C7C7",
"k  c #818485",
"l  c #1A94D1",
"m  c #9C9FA1",
"n  c #2899D3",
"o  c #818182",
"p  c #A7A7A7",
"q  c #2094CF",
"r  c #A4A4A4",
"s  c #868789",
"t  c #2999D3",
"u  c #A8A8A8",
"v  c #1D95D2",
"w  c #1894D1",
"x  c #1793D0",
"y  c #2194CF",
"z  c #2096D2",
"A  c #1894D2",
"                              ",
"                              ",
"                              ",
"                              ",
"          . +@   #$           ",
"          %&*=-;>,')          ",
"         !~{]*^/({_:          ",
"         <[{{}|({1|2          ",
"          34{{5{6789          ",
"          0a|5{bcd9           ",
"          2/({b{ef2           ",
"         gh({6i{{jkl          ",
"          m{6|no{{pq          ",
"          2rst.;*uvw          ",
"          xy#   %zA           ",
"                              ",
"                              ",
"                              ",
"                              ",
"                              ",
"                              ",
"                              ",
"                              ",
"                              ",
"                              "};
